<svg width="33" height="33" viewBox="0 0 33 33" fill="none" xmlns="http://www.w3.org/2000/svg">
<path d="M16.5 0C25.613 0 33 7.38703 33 16.5C33 25.613 25.613 33 16.5 33C7.38703 33 0 25.613 0 16.5C0 7.38703 7.38703 0 16.5 0ZM16.5 31.205C24.5774 31.205 31.205 24.5774 31.205 16.5C31.205 8.4226 24.5774 1.79498 16.5 1.79498C8.4226 1.79498 1.79498 8.4226 1.79498 16.5C1.79498 24.5774 8.4226 31.205 16.5 31.205Z" fill="#4071B6"/>
<path d="M25.2678 17.4666H7.73222V15.5336H25.2678V17.4666Z" fill="#4071B6"/>
<path d="M17.4666 25.2679H15.5336V7.73231H17.4666V25.2679Z" fill="#4071B6"/>
</svg>
