<svg width="61" height="51" viewBox="0 0 61 51" fill="none" xmlns="http://www.w3.org/2000/svg">
<path d="M48.3999 23.4467H18.7499L27.8249 14.3634C28.2493 13.9379 28.4534 13.3894 28.3925 12.8385C28.3315 12.2876 28.0104 11.7795 27.4999 11.4259C26.9894 11.0722 26.3312 10.9021 25.6701 10.9529C25.009 11.0037 24.3992 11.2712 23.9749 11.6967L11.4749 24.1967C11.3908 24.2961 11.3156 24.4006 11.2499 24.5092C11.2499 24.6134 11.2499 24.6759 11.0749 24.78C10.9616 25.0189 10.9023 25.2732 10.8999 25.53C10.9023 25.7869 10.9616 26.0412 11.0749 26.28C11.0749 26.3842 11.0749 26.4467 11.2499 26.5509C11.3156 26.6595 11.3908 26.7639 11.4749 26.8634L23.9749 39.3634C24.21 39.5985 24.5043 39.7877 24.837 39.9173C25.1697 40.0469 25.5326 40.1139 25.8999 40.1134C26.484 40.1143 27.0501 39.9448 27.4999 39.6342C27.753 39.4593 27.9623 39.2445 28.1157 39.0021C28.2691 38.7597 28.3636 38.4945 28.3937 38.2216C28.4239 37.9488 28.3892 37.6736 28.2916 37.412C28.194 37.1503 28.0354 36.9072 27.8249 36.6967L18.7499 27.6134H48.3999C49.0629 27.6134 49.6988 27.3939 50.1677 27.0032C50.6365 26.6125 50.8999 26.0826 50.8999 25.53C50.8999 24.9775 50.6365 24.4476 50.1677 24.0569C49.6988 23.6662 49.0629 23.4467 48.3999 23.4467Z" fill="#4071B6"/>
</svg>
