<svg width="20" height="20" viewBox="0 0 20 20" fill="none" xmlns="http://www.w3.org/2000/svg">
<path d="M10 20C15.5132 20 20 15.5132 20 10C20 4.4868 15.5132 0 10 0C4.4868 0 0 4.4868 0 10C0 15.5132 4.4868 20 10 20ZM10 1.40762C14.7214 1.40762 18.5924 5.24927 18.5924 10C18.5924 14.7507 14.7214 18.5924 10 18.5924C5.27859 18.5924 1.40762 14.7214 1.40762 10C1.40762 5.27859 5.27859 1.40762 10 1.40762Z" fill="#405E98"/>
<path d="M8.32845 14.3988C7.94722 14.3988 7.62464 14.7214 7.62464 15.1026C7.62464 15.4839 7.94722 15.8065 8.32845 15.8065H12.9619C13.3431 15.8065 13.6657 15.4839 13.6657 15.1026C13.6657 14.7214 13.3431 14.3988 12.9619 14.3988H11.349V8.18182C11.349 7.80059 11.0264 7.47801 10.6452 7.47801H8.32845C7.94722 7.47801 7.62464 7.80059 7.62464 8.18182C7.62464 8.56305 7.94722 8.88563 8.32845 8.88563H9.94135V14.3988H8.32845Z" fill="#405E98"/>
<path d="M9.67742 6.30499C10.3091 6.30499 10.8211 5.79294 10.8211 5.16129C10.8211 4.52964 10.3091 4.0176 9.67742 4.0176C9.04577 4.0176 8.53373 4.52964 8.53373 5.16129C8.53373 5.79294 9.04577 6.30499 9.67742 6.30499Z" fill="#405E98"/>
</svg>
