<svg width="21" height="25" viewBox="0 0 21 25" fill="none" xmlns="http://www.w3.org/2000/svg">
<path d="M0.5 12.5C0.5 12.8315 0.631696 13.1495 0.866117 13.3839C1.10054 13.6183 1.41848 13.75 1.75 13.75H11.2375L8.3625 16.6125C8.24534 16.7287 8.15235 16.867 8.08889 17.0193C8.02542 17.1716 7.99275 17.335 7.99275 17.5C7.99275 17.665 8.02542 17.8284 8.08889 17.9807C8.15235 18.133 8.24534 18.2713 8.3625 18.3875C8.4787 18.5047 8.61695 18.5977 8.76928 18.6611C8.9216 18.7246 9.08498 18.7572 9.25 18.7572C9.41502 18.7572 9.5784 18.7246 9.73072 18.6611C9.88305 18.5977 10.0213 18.5047 10.1375 18.3875L15.1375 13.3875C15.2513 13.2686 15.3405 13.1284 15.4 12.975C15.525 12.6707 15.525 12.3293 15.4 12.025C15.3405 11.8716 15.2513 11.7314 15.1375 11.6125L10.1375 6.6125C10.021 6.49595 9.88259 6.4035 9.73031 6.34043C9.57803 6.27735 9.41482 6.24489 9.25 6.24489C9.08518 6.24489 8.92197 6.27735 8.76969 6.34043C8.61741 6.4035 8.47905 6.49595 8.3625 6.6125C8.24595 6.72905 8.1535 6.86741 8.09043 7.01969C8.02735 7.17197 7.99489 7.33518 7.99489 7.5C7.99489 7.66482 8.02735 7.82803 8.09043 7.98031C8.1535 8.13259 8.24595 8.27095 8.3625 8.3875L11.2375 11.25H1.75C1.41848 11.25 1.10054 11.3817 0.866117 11.6161C0.631696 11.8505 0.5 12.1685 0.5 12.5ZM16.75 0H4.25C3.25544 0 2.30161 0.395088 1.59835 1.09835C0.895088 1.80161 0.5 2.75544 0.5 3.75V7.5C0.5 7.83152 0.631696 8.14946 0.866117 8.38388C1.10054 8.6183 1.41848 8.75 1.75 8.75C2.08152 8.75 2.39946 8.6183 2.63388 8.38388C2.8683 8.14946 3 7.83152 3 7.5V3.75C3 3.41848 3.1317 3.10054 3.36612 2.86612C3.60054 2.6317 3.91848 2.5 4.25 2.5H16.75C17.0815 2.5 17.3995 2.6317 17.6339 2.86612C17.8683 3.10054 18 3.41848 18 3.75V21.25C18 21.5815 17.8683 21.8995 17.6339 22.1339C17.3995 22.3683 17.0815 22.5 16.75 22.5H4.25C3.91848 22.5 3.60054 22.3683 3.36612 22.1339C3.1317 21.8995 3 21.5815 3 21.25V17.5C3 17.1685 2.8683 16.8505 2.63388 16.6161C2.39946 16.3817 2.08152 16.25 1.75 16.25C1.41848 16.25 1.10054 16.3817 0.866117 16.6161C0.631696 16.8505 0.5 17.1685 0.5 17.5V21.25C0.5 22.2446 0.895088 23.1984 1.59835 23.9017C2.30161 24.6049 3.25544 25 4.25 25H16.75C17.7446 25 18.6984 24.6049 19.4017 23.9017C20.1049 23.1984 20.5 22.2446 20.5 21.25V3.75C20.5 2.75544 20.1049 1.80161 19.4017 1.09835C18.6984 0.395088 17.7446 0 16.75 0Z" fill="#4071B6"/>
</svg>
