<svg width="188" height="188" viewBox="0 0 188 188" fill="none" xmlns="http://www.w3.org/2000/svg">
<path d="M5.87471 10.2812C5.87471 7.85781 7.85743 5.875 10.2807 5.875H107.214C109.637 5.875 111.62 7.85781 111.62 10.2812V14.6875H117.494V10.2812C117.494 4.62656 112.868 0 107.214 0H10.2807C4.62634 0 0 4.62656 0 10.2812V88.125H5.87471V10.2812ZM111.62 170.375C111.62 176.837 106.332 182.125 99.8701 182.125H17.6241C11.162 182.125 5.87471 176.837 5.87471 170.375V94H0V170.375C0 180.105 7.89415 188 17.6241 188H99.8701C109.6 188 117.494 180.105 117.494 170.375V126.312H111.62V170.375Z" fill="#405E98"/>
<path d="M32.3109 135.125H20.5615C15.7149 135.125 11.7494 139.091 11.7494 143.938C11.7494 148.784 15.7149 152.75 20.5615 152.75H32.3109C37.1576 152.75 41.123 148.784 41.123 143.938C41.123 139.091 37.1576 135.125 32.3109 135.125ZM32.3109 146.875H20.5615C18.946 146.875 17.6241 145.553 17.6241 143.938C17.6241 142.322 18.946 141 20.5615 141H32.3109C33.9265 141 35.2483 142.322 35.2483 143.938C35.2483 145.553 33.9265 146.875 32.3109 146.875ZM52.8724 152.75H64.6218C69.4685 152.75 73.4339 148.784 73.4339 143.938C73.4339 139.091 69.4685 135.125 64.6218 135.125H52.8724C48.0258 135.125 44.0604 139.091 44.0604 143.938C44.0604 148.784 48.0258 152.75 52.8724 152.75ZM52.8724 141H64.6218C66.2374 141 67.5592 142.322 67.5592 143.938C67.5592 145.553 66.2374 146.875 64.6218 146.875H52.8724C51.2569 146.875 49.9351 145.553 49.9351 143.938C49.9351 142.322 51.2569 141 52.8724 141ZM32.3109 158.625H20.5615C15.7149 158.625 11.7494 162.591 11.7494 167.438C11.7494 172.284 15.7149 176.25 20.5615 176.25H32.3109C37.1576 176.25 41.123 172.284 41.123 167.438C41.123 162.591 37.1576 158.625 32.3109 158.625ZM32.3109 170.375H20.5615C18.946 170.375 17.6241 169.053 17.6241 167.438C17.6241 165.822 18.946 164.5 20.5615 164.5H32.3109C33.9265 164.5 35.2483 165.822 35.2483 167.438C35.2483 169.053 33.9265 170.375 32.3109 170.375ZM52.8724 176.25H64.6218C69.4685 176.25 73.4339 172.284 73.4339 167.438C73.4339 162.591 69.4685 158.625 64.6218 158.625H52.8724C48.0258 158.625 44.0604 162.591 44.0604 167.438C44.0604 172.284 48.0258 176.25 52.8724 176.25ZM52.8724 164.5H64.6218C66.2374 164.5 67.5592 165.822 67.5592 167.438C67.5592 169.053 66.2374 170.375 64.6218 170.375H52.8724C51.2569 170.375 49.9351 169.053 49.9351 167.438C49.9351 165.822 51.2569 164.5 52.8724 164.5ZM92.5267 176.25C98.1811 176.25 102.807 171.623 102.807 165.969V145.406C102.807 139.752 98.1811 135.125 92.5267 135.125H89.5894C83.935 135.125 79.3086 139.752 79.3086 145.406V165.969C79.3086 171.623 83.935 176.25 89.5894 176.25H92.5267ZM85.1833 165.969V145.406C85.1833 142.983 87.1661 141 89.5894 141H92.5267C94.9501 141 96.9328 142.983 96.9328 145.406V165.969C96.9328 168.392 94.9501 170.375 92.5267 170.375H89.5894C87.1661 170.375 85.1833 168.392 85.1833 165.969ZM69.7622 35.25H35.9826C32.3476 35.25 29.3736 38.2242 29.3736 41.8594V63.8906C29.3736 67.5258 32.3476 70.5 35.9826 70.5H69.7622C73.3972 70.5 76.3713 67.5258 76.3713 63.8906V41.8594C76.3713 38.2242 73.3972 35.25 69.7622 35.25ZM70.4966 41.8594V52.875H63.8141L59.8854 41.125H69.7622C70.1661 41.125 70.4966 41.4555 70.4966 41.8594ZM35.9826 41.125H45.1986L42.2612 47H35.2483V41.8594C35.2483 41.4555 35.5787 41.125 35.9826 41.125ZM35.2483 63.8906V52.875H41.9308L45.8595 64.625H35.9826C35.5787 64.625 35.2483 64.2945 35.2483 63.8906ZM52.0646 64.625L47.2547 50.1578L51.7709 41.125H53.7169L58.5268 55.5922L54.0107 64.625H52.0646ZM69.7622 64.625H60.5463L63.4836 58.75H70.4966V63.8906C70.4966 64.2945 70.1661 64.625 69.7622 64.625Z" fill="#405E98"/>
<path d="M35.2483 82.25H29.3736V91.0625H35.2483V82.25Z" fill="#405E98"/>
<path d="M46.9977 82.25H41.123V91.0625H46.9977V82.25Z" fill="#405E98"/>
<path d="M58.7471 82.25H52.8724V91.0625H58.7471V82.25Z" fill="#405E98"/>
<path d="M70.4966 82.25H64.6218V91.0625H70.4966V82.25Z" fill="#405E98"/>
<path d="M82.246 82.25H76.3713V91.0625H82.246V82.25Z" fill="#405E98"/>
<path d="M93.9954 82.25H88.1207V91.0625H93.9954V82.25Z" fill="#405E98"/>
<path d="M105.745 82.25H99.8701V91.0625H105.745V82.25Z" fill="#405E98"/>
<path d="M61.6845 99.875H29.3736V105.75H61.6845V99.875Z" fill="#405E98"/>
<path d="M85.1833 99.875H67.5592V105.75H85.1833V99.875Z" fill="#405E98"/>
<path d="M127.298 71.6383L131.226 76.0078C135.596 72.1156 138.092 66.5344 138.092 60.6961C138.092 54.8578 135.596 49.2766 131.226 45.3844L127.298 49.7539C130.419 52.5445 132.181 56.5469 132.181 60.6961C132.181 64.8453 130.382 68.8476 127.298 71.6383Z" fill="#405E98"/>
<path d="M135.449 80.0836L139.451 84.3797C146.023 78.2844 149.805 69.6555 149.805 60.6594C149.805 51.0758 145.583 42.0797 138.276 35.911L134.494 40.4274C140.516 45.4578 143.93 52.8383 143.93 60.6961C143.93 68.0399 140.846 75.0899 135.449 80.0836ZM118.963 63.2297L121.9 68.2969C124.617 66.718 126.306 63.8172 126.306 60.6594C126.306 57.5016 124.617 54.6008 121.9 53.0219L118.963 58.0891C119.881 58.6031 120.432 59.5946 120.432 60.6227C120.432 61.6508 119.881 62.7156 118.963 63.2297Z" fill="#405E98"/>
<path d="M179.179 173.312H173.304V188H179.179V173.312Z" fill="#405E98"/>
<path d="M187.917 111.037L177.343 58.1992C176.388 53.4258 172.129 49.9375 167.246 49.9375H164.492V30.8438C164.492 25.1891 159.866 20.5625 154.211 20.5625H61.6845V26.4375H154.211C156.635 26.4375 158.617 28.4203 158.617 30.8438V113.828C158.617 114.232 158.287 114.562 157.883 114.562H154.138L131.52 86.2891C130.529 85.0773 128.803 84.8203 127.518 85.7383L124.03 88.2352C115.475 94.3672 111.877 104.869 114.3 114.562H24.9675C22.5442 114.562 20.5615 112.58 20.5615 110.156V30.8438C20.5615 28.4203 22.5442 26.4375 24.9675 26.4375H55.8098V20.5625H24.9675C19.3131 20.5625 14.6868 25.1891 14.6868 30.8438V110.156C14.6868 115.811 19.3131 120.438 24.9675 120.438H116.613C116.907 120.988 117.201 121.502 117.568 122.016L135.155 150.62V188H141.03V149.812C141.03 149.262 140.883 148.748 140.589 148.27L122.561 118.932L122.524 118.895C117.017 110.303 119.183 98.957 127.481 93.0453L128.693 92.1641L150.466 119.373C151.017 120.07 151.861 120.474 152.743 120.474H157.883C161.518 120.474 164.492 117.5 164.492 113.865V55.8125H167.282C169.375 55.8125 171.174 57.318 171.615 59.3375L182.079 111.588L173.377 152.126C173.341 152.346 173.304 152.53 173.304 152.75V167.438H179.179V153.044L187.917 112.213C188.028 111.845 188.028 111.441 187.917 111.037Z" fill="#405E98"/>
</svg>
