<svg width="57" height="57" viewBox="0 0 57 57" fill="none" xmlns="http://www.w3.org/2000/svg">
<g clip-path="url(#clip0_6_117)" filter="url(#filter0_d_6_117)">
<path d="M30.9 48.53H26.9C25.246 48.53 23.9 47.184 23.9 45.53V41.806C22.6199 41.436 21.3852 40.9238 20.219 40.279L17.585 42.914C16.451 44.048 14.476 44.046 13.342 42.914L10.513 40.086C9.94602 39.52 9.63402 38.766 9.63402 37.965C9.63402 37.164 9.94602 36.41 10.513 35.844L13.148 33.208C12.5032 32.0428 11.9916 30.8087 11.623 29.529H7.90002C6.24602 29.529 4.90002 28.183 4.90002 26.529V22.529C4.90002 21.727 5.21202 20.974 5.77802 20.408C6.05613 20.1286 6.38684 19.907 6.75106 19.7562C7.11529 19.6053 7.50579 19.5281 7.90002 19.529H11.624C11.994 18.251 12.504 17.018 13.15 15.85L10.516 13.215C9.9541 12.6522 9.63849 11.8893 9.63849 11.094C9.63849 10.2987 9.9541 9.53584 10.516 8.973L13.344 6.144C14.477 5.012 16.453 5.01 17.587 6.144L20.222 8.779C21.3873 8.13504 22.621 7.62352 23.9 7.254V3.53C23.9 1.876 25.246 0.529999 26.9 0.529999H30.9C32.554 0.529999 33.9 1.876 33.9 3.53V7.254C35.18 7.624 36.412 8.135 37.578 8.779L40.213 6.144C41.347 5.012 43.322 5.01 44.456 6.144L47.285 8.972C47.852 9.538 48.164 10.292 48.164 11.093C48.164 11.894 47.852 12.648 47.285 13.214L44.651 15.849C45.2961 17.0146 45.808 18.249 46.177 19.529H49.9C51.554 19.529 52.9 20.875 52.9 22.529V26.529C52.9 27.331 52.588 28.084 52.022 28.65C51.456 29.216 50.702 29.529 49.9 29.529H46.176C45.8063 30.8088 45.2944 32.0431 44.65 33.209L47.284 35.844C47.8459 36.4068 48.1616 37.1697 48.1616 37.965C48.1616 38.7603 47.8459 39.5232 47.284 40.086L44.456 42.915C43.322 44.048 41.347 44.048 40.213 42.915L37.58 40.28C36.4144 40.9243 35.1804 41.4361 33.901 41.806V45.53C33.8997 46.3254 33.5831 47.0879 33.0205 47.6502C32.458 48.2126 31.6954 48.5289 30.9 48.53ZM20.057 38.028C20.236 38.028 20.417 38.076 20.578 38.174C21.9892 39.0379 23.5268 39.676 25.135 40.065C25.3531 40.1177 25.5471 40.2422 25.6858 40.4185C25.8246 40.5948 25.9 40.8127 25.9 41.037V45.53C25.9 46.082 26.349 46.53 26.9 46.53H30.9C31.451 46.53 31.9 46.082 31.9 45.53V41.037C31.9 40.8127 31.9755 40.5948 32.1142 40.4185C32.253 40.2422 32.447 40.1177 32.665 40.065C34.2729 39.6762 35.8101 39.0385 37.221 38.175C37.617 37.934 38.123 37.995 38.45 38.321L41.628 41.5C42.003 41.874 42.667 41.876 43.043 41.5L45.871 38.671C46.0585 38.4835 46.1638 38.2292 46.1638 37.964C46.1638 37.6988 46.0585 37.4445 45.871 37.257L42.692 34.078C42.5333 33.9193 42.4325 33.7117 42.4061 33.4888C42.3796 33.2659 42.4289 33.0405 42.546 32.849C43.4094 31.4381 44.0468 29.9009 44.435 28.293C44.4876 28.0748 44.612 27.8805 44.7883 27.7416C44.9646 27.6026 45.1825 27.5271 45.407 27.527H49.9C50.0313 27.5275 50.1614 27.5021 50.2829 27.4521C50.4043 27.4022 50.5147 27.3287 50.6076 27.236C50.7005 27.1432 50.7742 27.033 50.8244 26.9117C50.8746 26.7904 50.9003 26.6603 50.9 26.529V22.529C50.9 21.977 50.451 21.529 49.9 21.529H45.407C45.1825 21.5291 44.9645 21.4536 44.7881 21.3146C44.6118 21.1757 44.4874 20.9813 44.435 20.763C44.0469 19.1551 43.4096 17.6178 42.546 16.207C42.4289 16.0155 42.3796 15.7901 42.4061 15.5672C42.4325 15.3443 42.5333 15.1367 42.692 14.978L45.871 11.799C46.057 11.612 46.164 11.355 46.164 11.092C46.164 10.829 46.057 10.571 45.871 10.385L43.042 7.557C42.8511 7.37558 42.5979 7.27443 42.3345 7.27443C42.0712 7.27443 41.8179 7.37558 41.627 7.557L38.448 10.736C38.2898 10.8955 38.0821 10.9968 37.859 11.0233C37.6358 11.0498 37.4103 11 37.219 10.882C35.8087 10.0189 34.2722 9.38149 32.665 8.993C32.447 8.94084 32.253 8.81675 32.1142 8.64076C31.9754 8.46477 31.8999 8.24714 31.9 8.023V3.53C31.9 2.978 31.451 2.53 30.9 2.53H26.9C26.349 2.53 25.9 2.978 25.9 3.53V8.023C25.9 8.24734 25.8246 8.46517 25.6858 8.64147C25.5471 8.81776 25.3531 8.94228 25.135 8.995C23.5272 9.38344 21.99 10.0208 20.579 10.884C20.3877 11.0012 20.1625 11.0506 19.9397 11.0241C19.7169 10.9976 19.5095 10.8968 19.351 10.738L16.172 7.559C15.9811 7.37758 15.7279 7.27643 15.4645 7.27643C15.2012 7.27643 14.9479 7.37758 14.757 7.559L11.93 10.387C11.7426 10.5745 11.6372 10.8288 11.6372 11.094C11.6372 11.3592 11.7426 11.6135 11.93 11.801L15.109 14.98C15.2678 15.1387 15.3685 15.3463 15.395 15.5692C15.4215 15.7921 15.3722 16.0175 15.255 16.209C14.3917 17.6195 13.7543 19.1564 13.366 20.764C13.3135 20.9822 13.1891 21.1765 13.0128 21.3154C12.8364 21.4544 12.6185 21.5299 12.394 21.53H7.90002C7.76864 21.5295 7.63845 21.5549 7.51695 21.6049C7.39545 21.655 7.28504 21.7285 7.19209 21.8214C7.09914 21.9142 7.02548 22.0245 6.97536 22.146C6.92523 22.2674 6.89963 22.3976 6.90002 22.529V26.529C6.90002 27.081 7.34902 27.529 7.90002 27.529H12.393C12.855 27.529 13.257 27.845 13.365 28.295C13.7535 29.9025 14.3908 31.4394 15.254 32.85C15.3712 33.0415 15.4205 33.2669 15.394 33.4898C15.3675 33.7127 15.2668 33.9203 15.108 34.079L11.929 37.259C11.743 37.446 11.636 37.703 11.636 37.966C11.636 38.229 11.743 38.487 11.929 38.673L14.758 41.501C14.9489 41.6824 15.2022 41.7836 15.4655 41.7836C15.7289 41.7836 15.9821 41.6824 16.173 41.501L19.351 38.322C19.4433 38.2286 19.5533 38.1545 19.6745 38.1041C19.7957 38.0536 19.9257 38.0277 20.057 38.028Z" fill="#4071B6"/>
<path d="M28.9 34.53C23.386 34.53 18.9 30.044 18.9 24.53C18.9 19.016 23.386 14.53 28.9 14.53C34.414 14.53 38.9 19.016 38.9 24.53C38.9 30.044 34.415 34.53 28.9 34.53ZM28.9 16.53C24.489 16.53 20.9 20.119 20.9 24.53C20.9 28.941 24.489 32.53 28.9 32.53C33.311 32.53 36.9 28.941 36.9 24.53C36.9 20.119 33.312 16.53 28.9 16.53Z" fill="#4071B6"/>
</g>
<defs>
<filter id="filter0_d_6_117" x="0.900024" y="0.529999" width="56" height="56" filterUnits="userSpaceOnUse" color-interpolation-filters="sRGB">
<feFlood flood-opacity="0" result="BackgroundImageFix"/>
<feColorMatrix in="SourceAlpha" type="matrix" values="0 0 0 0 0 0 0 0 0 0 0 0 0 0 0 0 0 0 127 0" result="hardAlpha"/>
<feOffset dy="4"/>
<feGaussianBlur stdDeviation="2"/>
<feComposite in2="hardAlpha" operator="out"/>
<feColorMatrix type="matrix" values="0 0 0 0 0 0 0 0 0 0 0 0 0 0 0 0 0 0 0.25 0"/>
<feBlend mode="normal" in2="BackgroundImageFix" result="effect1_dropShadow_6_117"/>
<feBlend mode="normal" in="SourceGraphic" in2="effect1_dropShadow_6_117" result="shape"/>
</filter>
<clipPath id="clip0_6_117">
<rect width="48" height="48" fill="white" transform="translate(4.90002 0.529999)"/>
</clipPath>
</defs>
</svg>
