<svg width="140" height="166" viewBox="0 0 140 166" fill="none" xmlns="http://www.w3.org/2000/svg">
<path d="M70 80.1609C62.0448 80.162 54.268 77.8122 47.653 73.4088C41.0379 69.0054 35.8819 62.746 32.8368 55.4224C29.7917 48.0987 28.9944 40.0397 30.5457 32.2645C32.0971 24.4893 35.9273 17.3471 41.5521 11.7412C47.1769 6.13534 54.3435 2.31751 62.1458 0.770552C69.948 -0.776404 78.0354 0.0170057 85.3851 3.05044C92.7349 6.08387 99.0168 11.2211 103.437 17.8124C107.856 24.4037 110.215 32.1531 110.215 40.0805C110.205 50.7064 105.965 60.8943 98.4257 68.4085C90.8862 75.9227 80.6632 80.1494 70 80.1609ZM70 11.5585C64.3376 11.5575 58.802 13.2298 54.0934 16.364C49.3848 19.4982 45.7147 23.9535 43.5473 29.1664C41.3799 34.3794 40.8125 40.1157 41.9169 45.65C43.0213 51.1843 45.7479 56.2679 49.7519 60.2579C53.7558 64.2478 58.8572 66.9649 64.4109 68.0655C69.9646 69.166 75.7211 68.6006 80.9523 66.4408C86.1835 64.2809 90.6544 60.6236 93.7996 55.9315C96.9448 51.2394 98.623 45.7231 98.6219 40.0805C98.6132 32.5187 95.5949 25.269 90.2291 19.922C84.8633 14.575 77.5883 11.5672 70 11.5585ZM134.203 166H5.79677L0 160.223C-1.36979e-07 151.063 1.8106 141.992 5.32843 133.529C8.84626 125.066 14.0024 117.376 20.5025 110.899C27.0026 104.421 34.7194 99.2833 43.2122 95.7778C51.7049 92.2722 60.8075 90.468 70 90.468C79.1925 90.468 88.295 92.2722 96.7878 95.7778C105.281 99.2833 112.997 104.421 119.497 110.899C125.998 117.376 131.154 125.066 134.672 133.529C138.189 141.992 140 151.063 140 160.223L134.203 166ZM11.8678 154.447H128.132C126.715 140.063 119.978 126.72 109.233 117.013C98.4881 107.305 84.5034 101.928 70 101.928C55.4966 101.928 41.5119 107.305 30.767 117.013C20.022 126.72 13.2854 140.063 11.8678 154.447Z" fill="#4071B6"/>
</svg>
