<svg width="158" height="128" viewBox="0 0 158 128" fill="none" xmlns="http://www.w3.org/2000/svg">
<path d="M155.064 121.673H144.77V36.2629C144.77 35.4239 144.423 34.6193 143.804 34.0261C143.185 33.4328 142.346 33.0995 141.471 33.0995H121.511C120.636 33.0995 119.796 33.4328 119.178 34.0261C118.559 34.6193 118.211 35.4239 118.211 36.2629V121.673H103.926V53.8511C103.926 53.0121 103.578 52.2075 102.959 51.6143C102.341 51.021 101.501 50.6878 100.626 50.6878H80.8311C79.9561 50.6878 79.1169 51.021 78.4982 51.6143C77.8794 52.2075 77.5318 53.0121 77.5318 53.8511V121.673H63.3452V77.766C63.3452 76.927 62.9976 76.1224 62.3788 75.5292C61.7601 74.9359 60.921 74.6027 60.0459 74.6027H40.2506C39.3756 74.6027 38.5364 74.9359 37.9177 75.5292C37.2989 76.1224 36.9513 76.927 36.9513 77.766V121.673H26.0969V15.1633C26.0969 14.3244 25.7493 13.5198 25.1306 12.9265C24.5118 12.3333 23.6727 12 22.7977 12C21.9227 12 21.0835 12.3333 20.4648 12.9265C19.846 13.5198 19.4984 14.3244 19.4984 15.1633V124.837C19.4984 125.676 19.846 126.48 20.4648 127.073C21.0835 127.667 21.9227 128 22.7977 128H154.701C155.576 128 156.415 127.667 157.034 127.073C157.652 126.48 158 125.676 158 124.837C158 123.998 157.652 123.193 157.034 122.6C156.415 122.007 155.576 121.673 154.701 121.673H155.064ZM124.81 39.4262H138.172V121.673H124.81V39.4262ZM84.1303 57.0145H97.3272V121.673H84.1303V57.0145ZM43.3848 80.9294H56.5817V121.673H43.3848V80.9294ZM3.29923 27.2473H9.23784C10.1128 27.2473 10.952 26.9141 11.5707 26.3208C12.1895 25.7276 12.5371 24.923 12.5371 24.084C12.5371 23.245 12.1895 22.4404 11.5707 21.8472C10.952 21.2539 10.1128 20.9206 9.23784 20.9206H3.29923C2.42422 20.9206 1.58505 21.2539 0.966321 21.8472C0.347596 22.4404 0 23.245 0 24.084C0 24.923 0.347596 25.7276 0.966321 26.3208C1.58505 26.9141 2.42422 27.2473 3.29923 27.2473ZM3.29923 46.1958H9.23784C10.1128 46.1958 10.952 45.8625 11.5707 45.2693C12.1895 44.676 12.5371 43.8714 12.5371 43.0324C12.5371 42.1935 12.1895 41.3889 11.5707 40.7956C10.952 40.2024 10.1128 39.8691 9.23784 39.8691H3.29923C2.42422 39.8691 1.58505 40.2024 0.966321 40.7956C0.347596 41.3889 0 42.1935 0 43.0324C0 43.8714 0.347596 44.676 0.966321 45.2693C1.58505 45.8625 2.42422 46.1958 3.29923 46.1958ZM3.29923 65.1126H9.23784C10.1128 65.1126 10.952 64.7793 11.5707 64.1861C12.1895 63.5929 12.5371 62.7882 12.5371 61.9493C12.5371 61.1103 12.1895 60.3057 11.5707 59.7124C10.952 59.1192 10.1128 58.7859 9.23784 58.7859H3.29923C2.42422 58.7859 1.58505 59.1192 0.966321 59.7124C0.347596 60.3057 0 61.1103 0 61.9493C0 62.7882 0.347596 63.5929 0.966321 64.1861C1.58505 64.7793 2.42422 65.1126 3.29923 65.1126ZM3.29923 84.0611H9.23784C10.1128 84.0611 10.952 83.7278 11.5707 83.1346C12.1895 82.5413 12.5371 81.7367 12.5371 80.8977C12.5371 80.0588 12.1895 79.2542 11.5707 78.6609C10.952 78.0677 10.1128 77.7344 9.23784 77.7344H3.29923C2.42422 77.7344 1.58505 78.0677 0.966321 78.6609C0.347596 79.2542 0 80.0588 0 80.8977C0 81.7367 0.347596 82.5413 0.966321 83.1346C1.58505 83.7278 2.42422 84.0611 3.29923 84.0611ZM3.29923 103.01H9.23784C10.1128 103.01 10.952 102.676 11.5707 102.083C12.1895 101.49 12.5371 100.685 12.5371 99.8462C12.5371 99.0072 12.1895 98.2026 11.5707 97.6094C10.952 97.0161 10.1128 96.6828 9.23784 96.6828H3.29923C2.42422 96.6828 1.58505 97.0161 0.966321 97.6094C0.347596 98.2026 0 99.0072 0 99.8462C0 100.685 0.347596 101.49 0.966321 102.083C1.58505 102.676 2.42422 103.01 3.29923 103.01ZM3.29923 121.958H9.23784C10.1128 121.958 10.952 121.625 11.5707 121.031C12.1895 120.438 12.5371 119.634 12.5371 118.795C12.5371 117.956 12.1895 117.151 11.5707 116.558C10.952 115.965 10.1128 115.631 9.23784 115.631H3.29923C2.42422 115.631 1.58505 115.965 0.966321 116.558C0.347596 117.151 0 117.956 0 118.795C0 119.634 0.347596 120.438 0.966321 121.031C1.58505 121.625 2.42422 121.958 3.29923 121.958Z" fill="#405E98"/>
<path d="M39.749 50.5668C39.309 50.648 38.8903 50.8113 38.517 51.0473C38.1436 51.2833 37.8231 51.5874 37.5738 51.942C37.3245 52.2966 37.1514 52.6947 37.0645 53.1134C36.9775 53.532 36.9785 53.9629 37.0674 54.3811C37.2191 55.1282 37.6426 55.8004 38.2635 56.2794C38.8844 56.7583 39.6629 57.0133 40.4618 56.9995H41.1067C43.2452 56.5792 90.5973 47.302 123.659 13.2963L123.421 16.3025C123.365 17.1549 123.666 17.9937 124.258 18.6358C124.849 19.2778 125.683 19.6708 126.578 19.7289H126.816C127.682 19.7304 128.516 19.4166 129.147 18.8517C129.778 18.2868 130.158 17.5136 130.21 16.6904L130.991 3.4695C131.029 2.98181 130.949 2.49235 130.76 2.03796C130.57 1.58357 130.274 1.1761 129.895 0.846233C129.516 0.516365 129.064 0.272698 128.571 0.133577C128.079 -0.00554292 127.56 -0.03649 127.053 0.0430668L113.476 2.17651C113.03 2.24443 112.603 2.39529 112.218 2.62049C111.834 2.84569 111.499 3.1408 111.235 3.48899C110.97 3.83719 110.78 4.23163 110.675 4.6498C110.57 5.06798 110.553 5.50169 110.624 5.92619C110.696 6.35069 110.854 6.75765 111.091 7.12384C111.327 7.49003 111.637 7.80828 112.003 8.06042C112.368 8.31256 112.782 8.49365 113.222 8.59334C113.661 8.69304 114.116 8.7094 114.562 8.64148L119.45 7.89801C87.9157 41.2573 40.2581 50.5022 39.749 50.5668Z" fill="#405E98"/>
</svg>
