<svg width="178" height="124" viewBox="0 0 178 124" fill="none" xmlns="http://www.w3.org/2000/svg">
<path d="M125.974 95.9223C120.613 93.8983 114.814 93.7692 109.453 91.7452C107.825 91.1423 104.608 90.4102 103.933 88.3862C103.297 86.4052 103.297 84.0798 103.178 82.0127C103.099 80.3763 103.059 78.7399 103.059 77.1034C103.059 76.0268 105.601 73.7445 106.157 72.754C108.301 68.8782 108.5 63.6675 108.897 59.275C112.352 60.3085 112.789 53.3752 113.385 51.2651C113.822 49.8009 116.482 39.724 112.352 41.102C113.345 39.2072 113.742 36.8818 114.02 34.7717C114.814 29.2595 115.132 23.2305 113.583 17.8475C110.366 6.65094 100.477 0.363616 90.0326 0.019105C79.4288 -0.36847 68.7854 5.1437 64.8139 16.2972C62.9076 21.7233 63.0665 27.623 63.7019 33.3075C63.9799 35.8913 64.3771 38.7766 65.5685 41.102C61.7162 39.8532 63.7813 48.7243 64.2182 50.2746C64.8536 52.4709 65.4096 60.3516 69.0237 59.275C69.3414 62.7632 69.6988 66.3375 70.5725 69.7395C71.1682 72.0219 72.3994 73.9598 73.8291 75.7254C74.5439 76.5867 74.9014 76.6728 74.8617 77.7925C74.822 81.1515 74.9014 84.7688 74.1071 88.0417C73.3128 91.3145 66.6805 92.6926 64.0196 93.2955C56.871 94.8888 50.2784 95.6209 44.3213 100.444C37.3713 105.999 33.7572 114.655 33.7572 124H144.163C144.163 111.296 137.094 100.1 125.974 95.9223Z" fill="#405E98"/>
<path d="M44.2021 90.6255C42.8519 91.3576 41.2236 92.2619 44.5199 90.4532L44.8376 90.281C47.5381 88.9029 50.4373 88.5584 53.3365 88.257C54.4485 88.1278 54.9647 87.3096 54.1307 86.1469C52.5422 83.9506 47.0616 83.52 44.7581 82.5295C43.3284 81.9266 42.9313 81.3668 42.8121 79.6442C42.7724 78.8691 42.3753 75.4239 42.9313 74.8641C43.3284 74.4335 45.8304 74.6057 46.3864 74.5196C48.6502 74.2182 50.9536 73.7014 53.0982 72.7971C54.0116 72.4095 54.8853 71.9358 55.6796 71.3329C56.6327 70.5577 54.9647 68.6629 54.5279 67.6294C53.1776 64.3996 52.5819 60.8684 52.3833 57.3371C51.9862 50.4038 52.979 43.4275 51.7876 36.5373C50.0004 25.9866 42.4944 20.6898 32.9232 20.6898C27.0058 20.6898 21.1678 22.886 17.8715 28.4843C14.2178 34.6425 14.4163 42.3078 14.6149 49.3272C14.734 53.3322 14.8929 57.3802 14.3766 61.3851C14.1383 63.1077 13.7809 64.7872 13.2249 66.4236C12.788 67.6724 10.564 70.773 11.4377 71.419C14.734 73.9598 20.2941 74.8211 24.2655 74.4765C24.3846 76.5867 24.7421 79.2997 24.0272 81.2806C22.9152 84.3812 14.6149 85.1994 12.1129 86.1038C5.16287 88.6015 0 94.7166 0 103.329H31.573C32.0892 103.329 34.075 99.3244 34.631 98.6784C37.3315 95.4487 40.6278 92.6495 44.2021 90.6255Z" fill="#405E98"/>
<path d="M165.728 86.0607C162.511 84.9411 156.316 84.5965 154.012 81.5821C152.861 80.0748 153.496 76.2421 153.615 74.4335C155.363 74.6057 157.269 74.3043 159.056 74.0459C160.685 73.7875 162.273 73.443 163.822 72.8401C164.537 72.5387 165.252 72.2372 165.927 71.8066C167.476 70.8161 166.761 70.6439 165.967 69.1797C161.638 61.299 163.584 51.3082 163.385 42.6523C163.226 35.4607 161.479 27.58 155.442 23.532C150.001 19.8715 141.939 19.7424 136.101 22.3262C119.262 29.647 129.191 53.8489 123.432 67.7155C122.44 70.041 121.01 70.8592 123.512 72.2372C124.902 73.0124 126.411 73.5291 127.92 73.9167C130.224 74.5196 132.606 74.8641 134.989 74.9502C135.386 74.9502 135.108 80.3763 134.989 80.9361C134.552 83.0462 130.303 83.6491 128.714 84.1228C127.086 84.5965 124.386 84.7257 123.591 86.5775C122.4 89.3336 127.523 88.6446 128.794 88.9029C132.884 89.7212 136.498 92.1758 139.676 94.9749C142.058 97.0851 145.275 99.9273 146.149 103.372H178C177.921 94.7166 172.718 88.5584 165.728 86.0607Z" fill="#405E98"/>
</svg>
