<svg width="158" height="147" viewBox="0 0 158 147" fill="none" xmlns="http://www.w3.org/2000/svg">
<path d="M49.9638 133.139C47.2395 133.139 45.0212 130.923 45.0212 128.197V99.2017C45.0212 96.4754 47.2395 94.2591 49.9638 94.2591C52.6882 94.2591 54.9064 96.4754 54.9064 99.2017V128.197C54.9064 130.923 52.6901 133.139 49.9638 133.139ZM49.9638 96.2362C48.3288 96.2362 46.9983 97.5667 46.9983 99.2017V128.197C46.9983 129.832 48.3288 131.162 49.9638 131.162C51.5988 131.162 52.9294 129.832 52.9294 128.197V99.2017C52.9294 97.5667 51.5988 96.2362 49.9638 96.2362Z" fill="#405E98"/>
<path d="M82.4505 133.139C79.7261 133.139 77.5079 130.923 77.5079 128.197V99.2017C77.5079 96.4754 79.7261 94.2591 82.4505 94.2591C85.1748 94.2591 87.3931 96.4754 87.3931 99.2017V128.197C87.3931 130.923 85.1748 133.139 82.4505 133.139ZM82.4505 96.2362C80.8155 96.2362 79.4849 97.5667 79.4849 99.2017V128.197C79.4849 129.832 80.8155 131.162 82.4505 131.162C84.0855 131.162 85.416 129.832 85.416 128.197V99.2017C85.416 97.5667 84.0855 96.2362 82.4505 96.2362Z" fill="#405E98"/>
<path d="M115.206 133.468C112.482 133.468 110.263 131.251 110.263 128.525V99.5299C110.263 96.8036 112.482 94.5873 115.206 94.5873C117.93 94.5873 120.149 96.8036 120.149 99.5299V128.525C120.149 131.251 117.93 133.468 115.206 133.468ZM115.206 96.5643C113.571 96.5643 112.24 97.8949 112.24 99.5299V128.525C112.24 130.16 113.571 131.491 115.206 131.491C116.841 131.491 118.172 130.16 118.172 128.525V99.5299C118.172 97.8949 116.841 96.5643 115.206 96.5643Z" fill="#405E98"/>
<path d="M71.7923 45.0823H49.3549V46.4781H71.7923V45.0823Z" fill="#405E98"/>
<path d="M71.9089 50.6615H49.4716V52.0573H71.9089V50.6615Z" fill="#405E98"/>
<path d="M71.9089 56.5907H49.4716V57.9865H71.9089V56.5907Z" fill="#405E98"/>
<path d="M45.8377 37.1762H75.2995L69.3724 27.6132H42.0082L45.8377 37.1762Z" fill="#405E98"/>
<path d="M68.7852 21.5971H41.3123V26.2175H68.7852V21.5971Z" fill="#405E98"/>
<path d="M137.24 33.319C137.24 33.319 114.569 44.4002 124.154 51.4464L125.109 50.0803C125.107 50.0724 125.101 50.0645 125.101 50.0526C125.085 49.9498 125.147 49.8569 125.235 49.845L125.277 49.8391L125.449 49.5919L124.255 43.9772C124.235 43.8862 124.3 43.7992 124.401 43.7775C124.504 43.7538 124.599 43.8131 124.619 43.8981L125.74 49.1748L127.681 46.3971L126.455 40.634C126.438 40.545 126.503 40.4561 126.604 40.4343C126.704 40.4126 126.803 40.4679 126.819 40.5589L127.974 45.9819L130.233 42.7554L129.292 38.3466C129.279 38.2754 129.348 38.2022 129.449 38.1805C129.549 38.1588 129.644 38.1983 129.658 38.2675L130.524 42.3382L132.349 39.7305L131.774 37.0318C131.766 36.9903 131.841 36.9429 131.942 36.9191C132.044 36.8994 132.131 36.9132 132.141 36.9547L132.643 39.3133L133.62 37.9156C133.778 37.6882 134.091 37.6329 134.318 37.791C134.545 37.9492 134.601 38.2616 134.443 38.4889L133.533 39.7878L135.583 39.4992C135.625 39.4932 135.668 39.5723 135.684 39.6732C135.7 39.774 135.676 39.863 135.635 39.8689L133.24 40.205L131.418 42.8107L135.198 42.2789C135.271 42.269 135.34 42.3441 135.356 42.445C135.368 42.5478 135.322 42.6387 135.251 42.6486L131.123 43.2298L128.863 46.4564L134.017 45.7288C134.106 45.7189 134.191 45.7901 134.205 45.8929C134.221 45.9957 134.16 46.0867 134.069 46.0985L128.573 46.8735L126.629 49.6493L131.633 48.9455C131.722 48.9316 131.807 49.0067 131.823 49.1076C131.835 49.2084 131.776 49.3013 131.687 49.3152L126.339 50.0684L124.988 51.998C135.492 58.2533 137.24 33.319 137.24 33.319Z" fill="#405E98"/>
<path d="M129.334 6.69227H110.022C108.178 6.69227 106.679 5.19169 106.679 3.34514C106.679 1.50057 108.18 0 110.022 0H129.334C131.18 0 132.681 1.50057 132.681 3.34514C132.681 5.19169 131.18 6.69227 129.334 6.69227ZM110.024 2.2301C109.409 2.2301 108.909 2.73029 108.909 3.34514C108.909 3.96 109.411 4.46019 110.024 4.46019H129.336C129.953 4.46019 130.451 3.96 130.451 3.34514C130.451 2.73029 129.951 2.2301 129.336 2.2301H110.024Z" fill="#405E98"/>
<path d="M146.083 67.239H140.907C140.905 67.1579 140.905 67.0729 140.903 66.9919C140.878 65.1868 140.858 63.4925 140.858 61.9801C140.858 49.2915 138.497 40.7408 132.43 31.4922C126.489 22.4314 129.711 9.10425 129.747 8.96982L130.036 7.80732H110.255L110.546 8.9718C110.58 9.10426 113.812 22.4176 107.861 31.4922C102.205 40.12 99.8108 48.2021 99.5103 59.5463C97.6242 61.7863 96.264 64.398 95.6175 67.239H88.0178L104.459 18.6039C105.05 16.8582 103.36 14.7111 100.689 13.8076C98.0176 12.9041 95.3724 13.5882 94.7812 15.3319L77.235 67.239H76.9049V37.1762L70.1138 26.2175V20.2014H39.9778V26.2175L39.9897 26.2452L32.904 36.6167V64.5403L16.805 14.9978C14.9288 9.22288 9.78651 5.70178 5.34411 7.14501C0.89974 8.58825 -1.18801 14.46 0.690174 20.2369L16.1012 67.6581C11.4215 68.9649 7.98543 73.2472 7.98543 78.342C7.98543 84.0734 12.3448 88.7353 17.9181 89.3264V120.609C17.9181 134.786 29.4521 146.32 43.6294 146.32H121.542C135.72 146.32 147.254 134.786 147.254 120.609V89.3264C152.827 88.7353 157.186 84.0754 157.186 78.342C157.186 72.2112 152.214 67.239 146.083 67.239ZM109.429 32.5183C114.824 24.2879 113.308 13.2679 112.614 9.67957H127.675C126.981 13.2679 125.465 24.2879 130.862 32.5183C136.706 41.4327 138.984 49.6928 138.984 61.9801C138.984 63.5004 139.004 65.2026 139.027 67.0176C139.027 67.0887 139.029 67.1678 139.029 67.239H137.958C136.149 59.2933 128.83 53.119 119.702 52.0198C120.902 49.4121 122.798 39.7977 121.133 37.6863C119.211 35.2505 115.75 37.5597 114.726 38.7123C113.698 39.8649 116.007 40.2505 117.296 45.3156C118.585 50.3808 117.296 51.8359 117.296 51.8359C117.296 51.8359 117.306 51.8438 117.308 51.8478C117.134 51.8458 116.966 51.826 116.792 51.826C110.793 51.826 105.376 54.0166 101.462 57.5357C101.984 47.6367 104.33 40.2979 109.429 32.5183ZM116.792 53.3622C126.382 53.3622 134.397 59.315 136.386 67.239H97.1952C99.1841 59.315 107.203 53.3622 116.792 53.3622ZM75.2995 37.1762H45.8377L42.0082 27.6132H69.3724L75.2995 37.1762ZM75.513 38.572V67.239H45.7508V38.572H75.513ZM41.3123 21.5971H68.7852V26.2175H41.3123V21.5971ZM34.2998 37.0378L40.6105 27.7971L44.3688 37.1782H44.3569V67.241H34.2998V37.0378ZM2.94795 22.7161L8.06254 21.0535C9.00361 20.747 10.0732 21.433 10.4449 22.5797C10.8185 23.7284 10.3579 24.9126 9.41483 25.2171L4.30024 26.8798L2.94795 22.7161ZM7.88263 37.8978L13.185 36.1738C14.1281 35.8674 15.1977 36.5514 15.5693 37.7001C15.943 38.8488 15.4823 40.033 14.5393 40.3394L9.2369 42.0634L7.88263 37.8978ZM12.6236 52.4863L17.7975 50.8059C18.7385 50.4994 19.8081 51.1854 20.1818 52.3341C20.5554 53.4828 20.0948 54.667 19.1517 54.9715L13.9778 56.6539L12.6236 52.4863ZM19.7053 56.6816C21.4194 56.1261 22.2596 53.9691 21.5815 51.8774C20.9014 49.7877 18.954 48.5382 17.2419 49.0957L12.068 50.7762L9.79244 43.7735L15.0949 42.0496C16.8089 41.492 17.6492 39.3371 16.9711 37.2454C16.2929 35.1537 14.3456 33.9062 12.6315 34.4637L7.32906 36.1877L4.85974 28.5899L9.97433 26.9292C11.6884 26.3717 12.5287 24.2167 11.8486 22.125C11.1685 20.0333 9.22108 18.7858 7.50897 19.3413L2.39438 21.004L2.0049 19.8079C0.435136 14.976 2.18086 10.0631 5.89966 8.85317C9.61649 7.6452 13.9185 10.593 15.4903 15.4248L32.3267 67.237H26.6724C26.6368 67.0709 26.6091 66.9049 26.5537 66.7368C25.8756 64.6471 23.9282 63.3996 22.2142 63.9551L16.9117 65.6791L14.5334 58.3601L19.7053 56.6816ZM22.7697 65.6672C23.7108 65.3608 24.7803 66.0468 25.154 67.1935C25.158 67.2093 25.156 67.2232 25.1599 67.239H19.0865C18.5744 67.239 18.0762 67.2844 17.582 67.3536L22.7697 65.6672ZM142.578 120.609C142.578 132.208 133.142 141.647 121.54 141.647H43.6294C32.0301 141.647 22.5937 132.21 22.5937 120.609V89.445H142.58L142.578 120.609Z" fill="#405E98"/>
</svg>
