<svg width="124" height="146" viewBox="0 0 124 146" fill="none" xmlns="http://www.w3.org/2000/svg">
<path d="M98.0929 96.8055L81.9159 92.5366V83.8617C84.9109 81.8343 87.1777 79.0812 88.3786 75.9184L90.6724 69.8714C94.1536 68.9814 96.8391 66.418 97.4492 63.2307L98.6354 57.0488C99.241 53.8967 97.977 50.7319 95.2544 48.5822L95.1306 48.4835C95.1914 48.2272 95.2398 47.97 95.2927 47.7128C95.9016 47.1103 96.2831 46.3299 96.2831 45.4653V31.563C102.326 30.0696 106.765 25.2305 106.765 19.5072C106.765 12.5976 100.296 6.97609 92.3438 6.97609C88.7501 6.97609 85.4028 8.13306 82.8411 10.0881C78.2738 3.93255 70.3333 0 61.5768 0C53.0297 0 45.24 3.72716 40.6153 9.67928C38.1234 7.96093 34.9911 6.97511 31.655 6.97511C23.7033 6.97511 17.2339 12.5967 17.2339 19.5062C17.2339 25.2295 21.6729 30.0687 27.7158 31.5621V45.4644C27.7158 46.3309 28.0984 47.1133 28.7096 47.7167C28.7625 47.972 28.8098 48.2272 28.8705 48.4815L28.7445 48.5813C26.023 50.7299 24.7579 53.8957 25.3623 57.0468L26.5486 63.2298C27.1597 66.4171 29.8463 68.9804 33.3253 69.8704L35.6202 75.9174C36.82 79.0802 39.0857 81.8333 42.0829 83.8607V92.5356L25.9059 96.8046C10.411 100.894 0 113.095 0 127.167V142.577C0 144.467 1.76368 146 3.93929 146H120.061C122.236 146 124 144.467 124 142.577V127.167C123.999 113.096 113.588 100.894 98.0929 96.8055ZM74.0374 95.0393L62.5447 105.026C61.4237 104.667 60.3928 104.106 59.5227 103.35L49.9593 95.0393V88.1277L50.7595 88.5444C53.8997 90.1806 57.4946 91.0461 61.1559 91.0461H62.8396C66.5009 91.0461 70.0958 90.1806 73.236 88.5444L74.0362 88.1277L74.0374 95.0393ZM25.1124 19.5062C25.1124 16.3717 28.0478 13.8211 31.655 13.8211C34.3146 13.8211 36.6895 15.204 37.7047 17.3439C38.3305 18.6632 39.8251 19.5209 41.4729 19.4613C43.1139 19.4153 44.5501 18.4901 45.0779 17.1385C47.4786 10.983 54.109 6.84601 61.5779 6.84601C69.4565 6.84601 76.3739 11.471 78.4032 18.094C78.8613 19.5943 80.4246 20.6368 82.2097 20.6368C82.2131 20.6368 82.2176 20.6368 82.221 20.6368C84.0117 20.6319 85.5727 19.5796 86.0229 18.0744C86.7714 15.5698 89.3713 13.8211 92.3438 13.8211C95.9511 13.8211 98.8864 16.3717 98.8864 19.5062C98.8864 22.6407 95.9511 25.1914 92.3438 25.1914C90.1682 25.1914 88.4045 26.7239 88.4045 28.6144V42.0414H78.1792V33.5376C78.1792 32.187 76.9198 31.0926 75.3655 31.0926C73.8111 31.0926 72.5517 32.187 72.5517 33.5376V42.0414H51.4483V33.5376C51.4483 32.187 50.1889 31.0926 48.6345 31.0926C47.0802 31.0926 45.8208 32.187 45.8208 33.5376V42.0414H35.5943V28.6144C35.5943 26.7239 33.8307 25.1914 31.655 25.1914C28.0478 25.1914 25.1124 22.6417 25.1124 19.5062ZM36.398 63.4048L35.842 63.353C35.0721 63.2816 34.4452 62.7681 34.318 62.1051L33.1328 55.9221C32.9708 55.0762 33.3107 54.2263 34.0411 53.6493L35.8982 52.1832C36.9551 51.349 37.3963 50.0884 37.08 48.8883H86.9177C86.6015 50.0884 87.0438 51.351 88.0995 52.1852L89.9544 53.6493C90.6848 54.2263 91.0247 55.0752 90.8626 55.9221L89.6764 62.106C89.5492 62.7691 88.9223 63.2816 88.1524 63.353L87.6088 63.4038C85.8665 63.5623 84.3819 64.599 83.8237 66.0552L80.8951 73.7736C80.042 76.023 78.2862 77.9311 75.9496 79.1477L69.1842 82.6724C67.2674 83.671 65.0738 84.2001 62.8385 84.2001H61.1547C58.9206 84.2001 56.7258 83.672 54.8091 82.6724L48.0436 79.1477C45.7071 77.9311 43.9513 76.023 43.0981 73.7746L40.1707 66.0601C39.6259 64.6068 38.1403 63.5642 36.398 63.4048ZM7.87746 127.167C7.87746 116.131 16.0419 106.562 28.1941 103.354L46.1258 98.6217L55.5441 106.807C58.1868 109.103 61.6995 110.367 65.4373 110.367H86.0837C87.5424 110.367 88.7298 111.399 88.7298 112.667V139.154H7.87746V127.167ZM116.12 139.154H94.3574V112.667C94.3574 108.703 90.6454 105.477 86.0837 105.477H69.9821L77.872 98.6217L95.8037 103.354C107.957 106.561 116.121 116.13 116.121 127.167V139.154H116.12Z" fill="#405E98"/>
</svg>
