<svg width="94" height="141" viewBox="0 0 94 141" fill="none" xmlns="http://www.w3.org/2000/svg">
<path d="M26.5287 79.3273H67.4713C69.0277 79.3274 70.5322 78.7883 71.7104 77.8083C72.8886 76.8283 73.6619 75.4729 73.8892 73.9892C74.1165 72.5055 73.7826 70.9926 72.9485 69.7264C72.1143 68.4603 70.8356 67.5253 69.3455 67.092V64.1866C69.3391 59.8108 67.7473 55.5744 64.8449 52.209C61.9424 48.8435 57.9115 46.5602 53.4482 45.7533C53.9973 44.6943 54.2564 43.5177 54.201 42.3351C54.1455 41.1525 53.7773 40.0032 53.1312 38.9963C52.4852 37.9894 51.5828 37.1583 50.5098 36.5819C49.4367 36.0055 48.2285 35.703 47 35.703C45.7715 35.703 44.5633 36.0055 43.4902 36.5819C42.4172 37.1583 41.5148 37.9894 40.8688 38.9963C40.2227 40.0032 39.8545 41.1525 39.799 42.3351C39.7436 43.5177 40.0027 44.6943 40.5518 45.7533C36.0885 46.5602 32.0576 48.8435 29.1551 52.209C26.2527 55.5744 24.6609 59.8108 24.6545 64.1866V67.092C23.1644 67.5253 21.8857 68.4603 21.0515 69.7264C20.2174 70.9926 19.8835 72.5055 20.1108 73.9892C20.3381 75.4729 21.1114 76.8283 22.2895 77.8083C23.4677 78.7883 24.9723 79.3274 26.5287 79.3273ZM47 39.876C47.5702 39.876 48.1277 40.039 48.6018 40.3442C49.0759 40.6495 49.4455 41.0834 49.6637 41.591C49.8819 42.0986 49.939 42.6572 49.8278 43.1961C49.7165 43.7351 49.4419 44.2301 49.0387 44.6186C48.6355 45.0071 48.1217 45.2717 47.5625 45.3789C47.0032 45.4861 46.4235 45.4311 45.8967 45.2208C45.3698 45.0106 44.9196 44.6545 44.6028 44.1976C44.2859 43.7407 44.1169 43.2036 44.1169 42.6542C44.1177 41.9176 44.4217 41.2114 44.9622 40.6906C45.5028 40.1698 46.2356 39.8768 47 39.876ZM28.9797 64.1866C28.9842 60.3193 30.5806 56.6117 33.4185 53.8771C36.2565 51.1425 40.1042 49.6043 44.1177 49.5999H49.8823C53.8958 49.6043 57.7435 51.1425 60.5815 53.8771C63.4194 56.6117 65.0158 60.3193 65.0203 64.1866V66.825H28.9797V64.1866ZM26.5287 70.9926H67.4713C67.7552 70.9926 68.0364 71.0465 68.2987 71.1512C68.5611 71.2559 68.7994 71.4094 69.0002 71.6029C69.201 71.7963 69.3603 72.026 69.469 72.2788C69.5776 72.5316 69.6336 72.8025 69.6336 73.0762C69.6336 73.3498 69.5776 73.6207 69.469 73.8735C69.3603 74.1263 69.201 74.356 69.0002 74.5494C68.7994 74.7429 68.5611 74.8964 68.2987 75.0011C68.0364 75.1058 67.7552 75.1597 67.4713 75.1597H26.5287C26.2448 75.1597 25.9636 75.1058 25.7013 75.0011C25.4389 74.8964 25.2006 74.7429 24.9998 74.5494C24.799 74.356 24.6397 74.1263 24.531 73.8735C24.4224 73.6207 24.3664 73.3498 24.3664 73.0762C24.3664 72.8025 24.4224 72.5316 24.531 72.2788C24.6397 72.026 24.799 71.7963 24.9998 71.6029C25.2006 71.4094 25.4389 71.2559 25.7013 71.1512C25.9636 71.0465 26.2448 70.9926 26.5287 70.9926ZM78.862 124.33H40.2239C39.6504 124.33 39.1003 124.549 38.6948 124.94C38.2892 125.331 38.0613 125.861 38.0613 126.413C38.0613 126.966 38.2892 127.496 38.6948 127.887C39.1003 128.278 39.6504 128.497 40.2239 128.497H78.862C79.4355 128.497 79.9856 128.278 80.3911 127.887C80.7967 127.496 81.0245 126.966 81.0245 126.413C81.0245 125.861 80.7967 125.331 80.3911 124.94C79.9856 124.549 79.4355 124.33 78.862 124.33ZM78.862 87.9119H40.2239C39.6504 87.9119 39.1003 88.1315 38.6948 88.5223C38.2892 88.9131 38.0613 89.4431 38.0613 89.9957C38.0613 90.5484 38.2892 91.0784 38.6948 91.4692C39.1003 91.86 39.6504 92.0796 40.2239 92.0796H78.862C79.4355 92.0796 79.9856 91.86 80.3911 91.4692C80.7967 91.0784 81.0245 90.5484 81.0245 89.9957C81.0245 89.4431 80.7967 88.9131 80.3911 88.5223C79.9856 88.1315 79.4355 87.9119 78.862 87.9119ZM27.2485 112.66H15.138C14.854 112.66 14.5728 112.714 14.3104 112.819C14.048 112.923 13.8096 113.077 13.6088 113.27C13.408 113.464 13.2487 113.694 13.14 113.947C13.0314 114.199 12.9754 114.47 12.9755 114.744V126.413C12.9754 126.687 13.0314 126.958 13.14 127.211C13.2487 127.464 13.408 127.693 13.6088 127.887C13.8096 128.08 14.048 128.234 14.3104 128.339C14.5728 128.443 14.854 128.497 15.138 128.497H27.2485C27.5325 128.497 27.8137 128.443 28.0761 128.339C28.3385 128.234 28.5769 128.08 28.7777 127.887C28.9785 127.693 29.1378 127.464 29.2465 127.211C29.3551 126.958 29.4111 126.687 29.411 126.413V114.744C29.4111 114.47 29.3551 114.199 29.2465 113.947C29.1378 113.694 28.9785 113.464 28.7777 113.27C28.5769 113.077 28.3385 112.923 28.0761 112.819C27.8137 112.714 27.5325 112.66 27.2485 112.66ZM25.0859 124.33H17.3006V116.828H25.0859V124.33ZM88.954 23.7509H72.3742V4.86203C72.3742 4.0741 72.1754 3.298 71.795 2.60051C71.4146 1.90303 70.8641 1.30506 70.1907 0.858088C69.5173 0.411115 68.7412 0.128524 67.9293 0.0346407C67.1174 -0.0592423 66.2941 0.0383954 65.53 0.319149L1.39188 23.8877C1.38273 23.891 1.37435 23.8955 1.36527 23.8989C1.32296 23.9151 1.28171 23.9331 1.24074 23.9518C1.21504 23.9634 1.18928 23.9748 1.16429 23.9872C1.12986 24.0046 1.09649 24.0235 1.0632 24.0425C1.03342 24.0594 1.00357 24.076 0.974919 24.0941C0.949015 24.1106 0.924232 24.1284 0.8991 24.1458C0.866016 24.1688 0.83293 24.1916 0.801463 24.2162C0.781472 24.2318 0.762675 24.2486 0.743315 24.2649C0.709807 24.293 0.676439 24.3211 0.644972 24.351C0.627019 24.368 0.610337 24.3863 0.593019 24.404C0.56317 24.4344 0.533254 24.4648 0.505446 24.4968C0.486228 24.5189 0.468627 24.5423 0.450326 24.5652C0.427166 24.5942 0.403584 24.623 0.382114 24.6531C0.360993 24.6825 0.341988 24.7133 0.322556 24.7438C0.306366 24.7691 0.28954 24.7939 0.274546 24.8198C0.253849 24.8556 0.235476 24.8925 0.216962 24.9295C0.205558 24.9522 0.193449 24.9745 0.18289 24.9976C0.1655 25.0358 0.150507 25.0751 0.135372 25.1145C0.12622 25.1385 0.116296 25.1622 0.108061 25.1864C0.0956619 25.2229 0.0855306 25.2602 0.0751877 25.2975C0.0670218 25.327 0.0584348 25.3563 0.0515434 25.3862C0.0442915 25.418 0.0388755 25.4503 0.0331721 25.4827C0.0265402 25.5198 0.0200072 25.5569 0.0155004 25.5945C0.0122623 25.6212 0.0105049 25.6482 0.00832218 25.6752C0.0048015 25.7191 0.00205549 25.7629 0.00142113 25.807C0.00133751 25.8163 6.24716e-09 25.8254 6.24716e-09 25.8347V138.916C-2.15802e-05 139.19 0.0558993 139.461 0.164571 139.714C0.273243 139.966 0.432538 140.196 0.633356 140.39C0.834174 140.583 1.07258 140.737 1.33497 140.841C1.59735 140.946 1.87858 141 2.16258 141H88.954C90.2918 140.999 91.5744 140.486 92.5204 139.574C93.4664 138.663 93.9985 137.427 94 136.138V28.6131C93.9985 27.324 93.4664 26.0882 92.5204 25.1766C91.5744 24.2651 90.2918 23.7524 88.954 23.7509ZM67.0714 4.21328C67.1805 4.17314 67.2981 4.15916 67.4141 4.17255C67.5301 4.18594 67.641 4.22628 67.7372 4.29012C67.8334 4.35395 67.912 4.43936 67.9663 4.53899C68.0207 4.63862 68.0491 4.74948 68.0491 4.86203V23.7509H13.9027L67.0714 4.21328ZM89.6748 136.138C89.6747 136.322 89.5987 136.499 89.4635 136.629C89.3284 136.759 89.1451 136.832 88.954 136.832H4.32515V27.9185H88.954C89.1451 27.9187 89.3284 27.9919 89.4635 28.1222C89.5987 28.2524 89.6747 28.429 89.6748 28.6131V136.138ZM78.862 99.5813H40.2239C39.6504 99.5813 39.1003 99.8008 38.6948 100.192C38.2892 100.582 38.0613 101.112 38.0613 101.665C38.0613 102.218 38.2892 102.748 38.6948 103.139C39.1003 103.529 39.6504 103.749 40.2239 103.749H78.862C79.4355 103.749 79.9856 103.529 80.3911 103.139C80.7967 102.748 81.0245 102.218 81.0245 101.665C81.0245 101.112 80.7967 100.582 80.3911 100.192C79.9856 99.8008 79.4355 99.5813 78.862 99.5813ZM27.2485 87.9119H15.138C14.854 87.9119 14.5728 87.9658 14.3104 88.0705C14.048 88.1752 13.8096 88.3287 13.6088 88.5222C13.408 88.7157 13.2487 88.9454 13.14 89.1983C13.0314 89.4511 12.9754 89.7221 12.9755 89.9957V101.665C12.9754 101.939 13.0314 102.21 13.14 102.463C13.2487 102.715 13.408 102.945 13.6088 103.139C13.8096 103.332 14.048 103.486 14.3104 103.59C14.5728 103.695 14.854 103.749 15.138 103.749H27.2485C27.5325 103.749 27.8137 103.695 28.0761 103.59C28.3385 103.486 28.5769 103.332 28.7777 103.139C28.9785 102.945 29.1378 102.715 29.2465 102.463C29.3551 102.21 29.4111 101.939 29.411 101.665V89.9957C29.4111 89.7221 29.3551 89.4511 29.2465 89.1983C29.1378 88.9454 28.9785 88.7157 28.7777 88.5222C28.5769 88.3287 28.3385 88.1752 28.0761 88.0705C27.8137 87.9658 27.5325 87.9119 27.2485 87.9119ZM25.0859 99.5813H17.3006V92.0796H25.0859V99.5813ZM78.862 112.66H40.2239C39.6504 112.66 39.1003 112.88 38.6948 113.271C38.2892 113.661 38.0613 114.191 38.0613 114.744C38.0613 115.297 38.2892 115.827 38.6948 116.217C39.1003 116.608 39.6504 116.828 40.2239 116.828H78.862C79.4355 116.828 79.9856 116.608 80.3911 116.217C80.7967 115.827 81.0245 115.297 81.0245 114.744C81.0245 114.191 80.7967 113.661 80.3911 113.271C79.9856 112.88 79.4355 112.66 78.862 112.66Z" fill="#405E98"/>
</svg>
