<svg width="146" height="158" viewBox="0 0 146 158" fill="none" xmlns="http://www.w3.org/2000/svg">
<path d="M26.4825 45.2751C26.0034 45.2751 25.5225 45.0951 25.1537 44.7351C24.4027 44.0037 24.3894 42.8044 25.1232 42.0559C28.2067 38.9125 28.2067 33.7967 25.1232 30.6514C22.9199 28.4061 21.7071 25.4408 21.7071 22.2993C21.7071 19.1597 22.9199 16.1925 25.1232 13.9472C25.857 13.1988 27.0604 13.1855 27.8113 13.9169C28.5622 14.6483 28.5756 15.8476 27.8417 16.5961C24.7582 19.7395 24.7582 24.8553 27.8417 28.0006C30.0451 30.2459 31.2579 33.2112 31.2579 36.3527C31.2579 39.4923 30.0451 42.4595 27.8417 44.7048C27.4691 45.0857 26.9749 45.2751 26.4825 45.2751ZM119.516 45.2751C119.037 45.2751 118.556 45.0951 118.187 44.7351C117.436 44.0037 117.423 42.8044 118.157 42.0559C121.24 38.9125 121.24 33.7967 118.157 30.6514C115.954 28.4061 114.741 25.4408 114.741 22.2993C114.741 19.1597 115.954 16.1925 118.157 13.9472C118.891 13.1988 120.094 13.1855 120.845 13.9169C121.596 14.6483 121.609 15.8476 120.875 16.5961C117.792 19.7395 117.792 24.8553 120.875 28.0006C123.079 30.2459 124.292 33.2112 124.292 36.3527C124.292 39.4923 123.079 42.4595 120.875 44.7048C120.503 45.0857 120.01 45.2751 119.516 45.2751ZM72.9993 26.5189C72.5203 26.5189 72.0412 26.3389 71.6705 25.9789C70.9196 25.2475 70.9063 24.0482 71.6401 23.2997C73.9974 20.8972 73.9974 16.9864 71.6401 14.5838C69.7923 12.7004 68.7733 10.2107 68.7733 7.57702C68.7733 4.94331 69.7904 2.4536 71.6401 0.570205C72.3739 -0.178224 73.5773 -0.191487 74.3282 0.53989C75.0791 1.27127 75.0924 2.47065 74.3586 3.21908C72.0013 5.62163 72.0013 9.53241 74.3586 11.935C76.2064 13.8184 77.2254 16.3081 77.2254 18.9418C77.2254 21.5755 76.2083 24.0652 74.3586 25.9486C73.986 26.3294 73.4936 26.5189 72.9993 26.5189Z" fill="#405E98"/>
<path d="M82.8753 32.5537C82.8753 33.1563 82.8183 33.7702 82.7042 34.3765L81.4913 40.8452C81.3221 41.749 80.5275 42.3913 79.6245 42.3913C79.5542 42.3913 79.4838 42.3875 79.4135 42.3799C75.1894 41.9119 70.8093 41.9119 66.5852 42.3799C65.5966 42.4898 64.6898 41.8191 64.5073 40.8452L63.2945 34.3784C62.7527 31.4908 63.5226 28.5406 65.4046 26.2821C67.2867 24.0235 70.0546 22.7294 72.9993 22.7294C78.4459 22.7294 82.8753 27.1366 82.8753 32.5537Z" fill="#405E98"/>
<path d="M132.708 101.536H13.2911C12.2417 101.536 11.39 100.687 11.39 99.6414C11.39 84.4284 17.0134 69.8331 27.2239 58.5422C37.3584 47.3366 51.1886 40.2578 66.167 38.6132C70.6668 38.1148 75.33 38.1148 79.8317 38.6132C94.8082 40.2597 108.638 47.3366 118.773 58.5422C128.983 69.8331 134.607 84.4284 134.607 99.6414C134.609 100.687 133.757 101.536 132.708 101.536ZM15.2226 97.7467H130.776C129.852 69.1661 108.081 45.5309 79.4135 42.3799C75.1855 41.9119 70.8093 41.9119 66.5852 42.3799C37.9173 45.5309 16.1484 69.1661 15.2226 97.7467ZM26.0281 114.69C25.186 113.784 24.0529 113.284 22.8401 113.284H12.3216C9.87681 113.284 7.8864 115.357 7.8864 117.907V153.377C7.8864 155.925 9.87681 158 12.3216 158H22.8401C25.2867 158 27.2752 155.925 27.2752 153.377L27.2771 117.907C27.2771 116.7 26.8342 115.557 26.0281 114.69ZM19.6254 122.185C19.6254 123.309 18.7091 124.222 17.5818 124.222C16.4544 124.222 15.5381 123.309 15.5381 122.185C15.5381 121.064 16.4544 120.148 17.5818 120.148C18.7091 120.148 19.6254 121.064 19.6254 122.185Z" fill="#405E98"/>
<path d="M73.5792 153.263H25.3742C24.8704 153.263 24.3856 153.064 24.0301 152.708C23.6727 152.352 23.4731 151.87 23.4731 151.368L23.475 122.947C23.475 121.901 24.3267 121.052 25.3761 121.052H28.9634C31.7978 121.052 34.5239 119.86 36.444 117.78C39.0808 114.923 42.8277 113.284 46.723 113.284H74.562C78.8603 113.284 82.3563 116.768 82.3563 121.052C82.3563 125.336 78.8603 128.821 74.562 128.821H58.5932C57.597 128.821 56.7872 129.628 56.7872 130.621C56.7872 131.614 57.597 132.421 58.5932 132.421H80.0047C84.0045 132.421 87.9796 131.418 91.4985 129.52L110.355 119.353C113.99 117.393 118.476 118.489 120.79 121.901C123.257 125.539 122.297 130.505 118.649 132.968L101.038 144.864C92.9034 150.358 83.4076 153.263 73.5792 153.263ZM27.2771 149.474H73.5792C82.6453 149.474 91.4034 146.794 98.9088 141.726L116.52 129.831C118.434 128.538 118.938 125.933 117.644 124.023C116.429 122.233 114.075 121.657 112.167 122.685L93.3102 132.853C89.2381 135.049 84.6376 136.208 80.0066 136.208H58.5913C55.4983 136.208 52.9832 133.702 52.9832 130.619C52.9832 127.536 55.4983 125.029 58.5913 125.029H74.5601C76.7615 125.029 78.5523 123.244 78.5523 121.05C78.5523 118.856 76.7615 117.071 74.5601 117.071H46.7211C43.8866 117.071 41.1605 118.265 39.2405 120.344C36.6037 123.201 32.8567 124.84 28.9615 124.84H27.2752L27.2771 149.474Z" fill="#405E98"/>
<path d="M130.411 117.073H15.5876C15.0401 117.073 14.5211 116.838 14.1599 116.429L0.472301 100.892C-0.0200712 100.333 -0.137938 99.5372 0.168132 98.8608C0.476102 98.1825 1.15288 97.7467 1.89999 97.7467H144.099C144.846 97.7467 145.523 98.1825 145.831 98.8608C146.139 99.5391 146.021 100.333 145.526 100.892L131.839 116.429C131.478 116.838 130.959 117.073 130.411 117.073ZM16.4487 113.284H129.552L139.901 101.536H6.09941L16.4487 113.284ZM31.3397 86.0863C31.1192 86.0863 30.8948 86.0484 30.6762 85.967C29.6915 85.6013 29.1915 84.5118 29.5584 83.5303C33.9916 71.6634 43.2498 62.0248 54.9622 57.0871C55.9298 56.6797 57.0438 57.1306 57.4544 58.0932C57.8632 59.0576 57.4107 60.1679 56.445 60.5772C45.6926 65.1095 37.193 73.958 33.1248 84.851C32.8358 85.6145 32.1115 86.0863 31.3397 86.0863Z" fill="#405E98"/>
</svg>
