<svg width="171" height="150" viewBox="0 0 171 150" fill="none" xmlns="http://www.w3.org/2000/svg">
<path d="M130.89 0.840253C130.347 0.306949 129.616 0.00543412 128.853 7.2736e-05C128.089 -0.00528865 127.354 0.285929 126.804 0.811558L55.3024 71.8035H48.7451C44.105 71.8182 39.5367 72.9431 35.4271 75.0831L30.3353 77.7733V72.4011C30.3353 70.8164 28.9377 69.6514 27.3422 69.6514H3.05945C1.464 69.6514 0 70.8164 0 72.4011V147.195C0 148.78 1.464 149.999 3.05945 149.999H27.3415C28.1117 150.017 28.858 149.733 29.4184 149.208C29.9788 148.683 30.308 147.959 30.3345 147.195V144.152L35.4264 146.781C39.5408 148.902 44.1096 150.006 48.7451 149.999H91.4543C95.9207 149.999 99.6706 146.455 99.6706 142.018V134.254C99.6482 133.094 99.3735 131.953 98.8653 130.908C100.107 130.204 101.138 129.183 101.85 127.952C102.563 126.721 102.933 125.323 102.921 123.902V116.138C102.926 114.793 102.589 113.468 101.941 112.287C103.102 111.447 104.019 110.317 104.599 109.012L170.154 43.901C170.696 43.3628 171 42.633 171 41.872C171 41.111 170.696 40.3812 170.154 39.843L130.89 0.840253ZM24.5565 144.26H5.77801V75.3905H24.5565V144.26ZM128.847 6.92732L135.101 13.1399L134.415 13.8214C132.966 15.2577 131.002 16.0644 128.955 16.0644C126.908 16.0644 124.944 15.2577 123.495 13.8214L122.7 13.0323L128.847 6.92732ZM103.282 87.6704C103.257 88.3071 102.992 88.911 102.538 89.3611C102.084 89.8111 101.475 90.074 100.834 90.097H84.4192C83.653 90.097 82.9182 90.3993 82.3764 90.9375C81.8346 91.4756 81.5302 92.2055 81.5302 92.9666C81.5302 93.7276 81.8346 94.4575 82.3764 94.9957C82.9182 95.5338 83.653 95.8361 84.4192 95.8361H97.1864C98.4666 95.8361 99.6706 96.7505 99.6706 98.0242V105.786C99.6706 107.058 98.4666 108.032 97.1864 108.032H81.8137C81.0475 108.032 80.3126 108.334 79.7708 108.872C79.229 109.41 78.9247 110.14 78.9247 110.901C78.9247 111.662 79.229 112.392 79.7708 112.93C80.3126 113.469 81.0475 113.771 81.8137 113.771H94.8413C95.461 113.786 96.0497 114.043 96.4804 114.486C96.911 114.929 97.1489 115.523 97.1427 116.138V123.902C97.1509 124.524 96.9154 125.124 96.4859 125.577C96.0563 126.029 95.4665 126.297 94.8413 126.325H79.2082C78.4419 126.325 77.7071 126.628 77.1653 127.166C76.6235 127.704 76.3192 128.434 76.3192 129.195C76.3192 129.956 76.6235 130.686 77.1653 131.224C77.7071 131.762 78.4419 132.064 79.2082 132.064H91.4543C92.7345 132.064 93.8926 132.983 93.8926 134.254V142.018C93.8926 143.29 92.7345 144.26 91.4543 144.26H48.7451C45.0389 144.268 41.3858 143.386 38.0962 141.69L30.3345 137.681V84.2438L38.0962 80.173C41.3813 78.4587 45.0342 77.5564 48.7451 77.5427H100.834C101.469 77.5516 102.076 77.8015 102.531 78.2409C102.986 78.6804 103.255 79.2762 103.282 79.9061V87.6704ZM100.834 71.8035H96.237C93.4387 68.5035 91.9355 64.31 92.0046 59.996C92.0382 56.3201 93.1871 52.7397 95.3011 49.7224C97.4151 46.705 100.396 44.391 103.855 43.0826C107.313 41.7741 111.089 41.532 114.688 42.3879C118.287 43.2438 121.543 45.1578 124.03 47.8801C126.517 50.6024 128.12 54.0063 128.629 57.6474C129.138 61.2885 128.53 64.9975 126.884 68.29C125.238 71.5825 122.631 74.3055 119.403 76.1033C116.175 77.9012 112.476 78.6903 108.789 78.3677C108.435 76.5272 107.448 74.8662 105.997 73.6688C104.545 72.4715 102.721 71.8121 100.834 71.8035ZM105.449 100.219V98.0242C105.443 96.9097 105.204 95.8086 104.745 94.7913C106.05 94.1077 107.141 93.083 107.902 91.8279C108.662 90.5729 109.063 89.1352 109.06 87.6704V84.1609C109.421 84.1907 109.978 84.2104 110.466 84.2101C115.781 84.2075 120.947 82.4695 125.169 79.2636C129.391 76.0578 132.435 71.562 133.831 66.4689C135.228 61.3758 134.899 55.9679 132.897 51.0783C130.895 46.1887 127.33 42.0886 122.75 39.4097C118.171 36.7308 112.832 35.6217 107.556 36.2531C102.28 36.8846 97.3593 39.2217 93.5519 42.9044C89.7445 46.5871 87.2618 51.411 86.4862 56.6331C85.7106 61.8552 86.6851 67.1857 89.2597 71.8035H63.4754L118.615 17.0623L119.409 17.8657C120.662 19.1121 122.149 20.1011 123.787 20.7762C125.424 21.4513 127.18 21.7993 128.953 21.8003C130.726 21.8013 132.481 21.4552 134.12 20.782C135.758 20.1087 137.247 19.1214 138.501 17.8765L139.187 17.195L152.95 30.866L152.255 31.588C149.737 34.1068 148.327 37.5133 148.331 41.0625C148.336 44.6116 149.755 48.0146 152.279 50.5271C152.296 50.544 152.315 50.5605 152.33 50.577L153.914 51.9967L105.449 100.219ZM157.92 47.9391L156.342 46.4477C154.906 45.006 154.103 43.0588 154.107 41.0311C154.111 39.0033 154.923 37.0596 156.365 35.6241C156.38 35.609 156.395 35.5939 156.41 35.5785L157.037 34.9275L164.029 41.8722L157.92 47.9391Z" fill="#405E98"/>
</svg>
