<svg width="178" height="135" viewBox="0 0 178 135" fill="none" xmlns="http://www.w3.org/2000/svg">
<path d="M39.375 33.6875C39.375 32.4111 40.0664 31.1871 41.2971 30.2845C42.5278 29.382 44.197 28.875 45.9375 28.875H72.1875C73.928 28.875 75.5972 29.382 76.8279 30.2845C78.0586 31.1871 78.75 32.4111 78.75 33.6875C78.75 34.9639 78.0586 36.1879 76.8279 37.0905C75.5972 37.993 73.928 38.5 72.1875 38.5H45.9375C44.197 38.5 42.5278 37.993 41.2971 37.0905C40.0664 36.1879 39.375 34.9639 39.375 33.6875ZM91.875 48.125H45.9375C44.197 48.125 42.5278 48.632 41.2971 49.5345C40.0664 50.4371 39.375 51.6611 39.375 52.9375C39.375 54.2139 40.0664 55.4379 41.2971 56.3405C42.5278 57.243 44.197 57.75 45.9375 57.75H91.875C93.6155 57.75 95.2847 57.243 96.5154 56.3405C97.7461 55.4379 98.4375 54.2139 98.4375 52.9375C98.4375 51.6611 97.7461 50.4371 96.5154 49.5345C95.2847 48.632 93.6155 48.125 91.875 48.125ZM91.875 67.375H45.9375C44.197 67.375 42.5278 67.882 41.2971 68.7845C40.0664 69.6871 39.375 70.9111 39.375 72.1875C39.375 73.4639 40.0664 74.6879 41.2971 75.5905C42.5278 76.493 44.197 77 45.9375 77H91.875C93.6155 77 95.2847 76.493 96.5154 75.5905C97.7461 74.6879 98.4375 73.4639 98.4375 72.1875C98.4375 70.9111 97.7461 69.6871 96.5154 68.7845C95.2847 67.882 93.6155 67.375 91.875 67.375ZM177.188 28.875C177.204 33.4978 175.703 38.0555 172.811 42.1631C169.919 46.2707 165.721 49.8073 160.572 52.4741C155.423 55.1409 149.474 56.8595 143.228 57.4846C136.982 58.1098 130.623 57.623 124.688 56.0656V120.312C124.688 124.142 122.613 127.814 118.921 130.521C115.229 133.229 110.221 134.75 105 134.75H19.6875C14.4661 134.75 9.45846 133.229 5.76634 130.521C2.07421 127.814 0 124.142 0 120.312V110.688C0 109.411 0.691404 108.187 1.92211 107.285C3.15282 106.382 4.82202 105.875 6.5625 105.875H13.125V19.25C13.125 14.1446 15.8906 9.24827 20.8134 5.63819C25.7363 2.02812 32.4131 0 39.375 0H118.125C119.16 0.00718209 120.177 0.196758 121.09 0.552731C122.004 0.908704 122.788 1.42063 123.375 2.04531C129.341 0.306 135.798 -0.334734 142.18 0.179156C148.562 0.693045 154.676 2.3459 159.985 4.99315C165.295 7.6404 169.639 11.2014 172.638 15.3647C175.637 19.5279 177.199 24.1666 177.188 28.875ZM19.6875 125.125H86.52C85.7428 123.584 85.3343 121.956 85.3125 120.312V115.5H13.125V120.312C13.125 121.589 13.8164 122.813 15.0471 123.715C16.2778 124.618 17.947 125.125 19.6875 125.125ZM111.562 50.3387C107.702 47.8186 104.56 44.7631 102.317 41.3484C100.075 37.9337 98.7755 34.2273 98.4948 30.4428C98.2142 26.6582 98.9577 22.8703 100.682 19.2974C102.407 15.7245 105.079 12.4372 108.544 9.625H39.375C35.894 9.625 32.5556 10.6391 30.0942 12.4441C27.6328 14.2491 26.25 16.6973 26.25 19.25V105.875H91.875C93.6155 105.875 95.2847 106.382 96.5154 107.285C97.7461 108.187 98.4375 109.411 98.4375 110.688V120.312C98.4375 121.589 99.1289 122.813 100.36 123.715C101.59 124.618 103.26 125.125 105 125.125C106.74 125.125 108.41 124.618 109.64 123.715C110.871 122.813 111.562 121.589 111.562 120.312V50.3387ZM164.062 28.875C164.062 25.0677 162.523 21.3459 159.639 18.1803C156.754 15.0146 152.654 12.5473 147.858 11.0903C143.061 9.63333 137.783 9.25212 132.691 9.99488C127.599 10.7376 122.922 12.571 119.251 15.2632C115.58 17.9554 113.08 21.3854 112.067 25.1195C111.054 28.8536 111.574 32.7242 113.561 36.2417C115.547 39.7591 118.912 42.7656 123.229 44.8808C127.546 46.996 132.621 48.125 137.812 48.125C144.774 48.125 151.451 46.0969 156.374 42.4868C161.297 38.8767 164.062 33.9804 164.062 28.875ZM150.938 24.0625H144.375C144.375 22.7861 143.684 21.5621 142.453 20.6595C141.222 19.757 139.553 19.25 137.812 19.25C136.072 19.25 134.403 19.757 133.172 20.6595C131.941 21.5621 131.25 22.7861 131.25 24.0625V28.875C131.25 30.1514 131.941 31.3754 133.172 32.278C134.403 33.1805 136.072 33.6875 137.812 33.6875H150.938C152.678 33.6875 154.347 33.1805 155.578 32.278C156.809 31.3754 157.5 30.1514 157.5 28.875C157.5 27.5986 156.809 26.3746 155.578 25.472C154.347 24.5695 152.678 24.0625 150.938 24.0625Z" fill="#405E98"/>
</svg>
